# xmcd
#
# Track frame offsets: 
#        150
#        12349
#        26465
#        42343
#        58188
#        74188
#        88356
#        103001
#        119276
#        132974
#        147634
#        161377
#        175207
#        190243
#        205361
#        219616
#        235137
#        250523
#        263397
#        277916
#        291455
#
# Disc length: 4083 seconds
#
# Revision: 0
# Processed by: cddbd v1.5.2PL0 Copyright (c) Steve Scherf et al.
# Submitted via: ExactAudioCopy v0.95b3
#
DISCID=430ff115
DTITLE=Teddy Wilson  - Teddy And The Girls Volume 1 1935-1937 The Comp
DTITLE=lementary Works
DYEAR=1900
DGENRE=
TTITLE0=I'd Love To Take Orders From You
TTITLE1=I'd Rather Liste To Your Eyes
TTITLE2=Somebody Sweetheart
TTITLE3=When Day Is Done
TTITLE4=Willow Tree
TTITLE5=Honeysuckle Rose
TTITLE6=Squeeze Me
TTITLE7=Downhearted Blues
TTITLE8=My Melancholy Baby
TTITLE9=All My Life
TTITLE10=You Came To My Rescue
TTITLE11=Here's Love In Your Eye
TTITLE12=For Sentimental Reasons
TTITLE13=It's Love I'm After
TTITLE14='Long About Midnight
TTITLE15=More Than You Know
TTITLE16=(I'm With You) Right Or Wrong
TTITLE17=Where The Lazy River Goes Down
TTITLE18=There A Lull In My Life
TTITLE19=It's Swell Of You
TTITLE20=How Am I To Know-
EXTD=
EXTT0=
EXTT1=
EXTT2=
EXTT3=
EXTT4=
EXTT5=
EXTT6=
EXTT7=
EXTT8=
EXTT9=
EXTT10=
EXTT11=
EXTT12=
EXTT13=
EXTT14=
EXTT15=
EXTT16=
EXTT17=
EXTT18=
EXTT19=
EXTT20=
PLAYORDER=
